# xmcd
#
# Track frame offsets:
#	150
#	13631
#	27843
#	43369
#	60746
#	78732
#	90483
#	106872
#	121818
#	137313
#	153023
#	168302
#
# Disc length: 2466 seconds
#
# Revision: 2
# Processed by: cddbd v1.5.2PL0 Copyright (c) Steve Scherf et al.
# Submitted via: audiograbber 1.83.01
#
DISCID=8909a00c
DTITLE=Various Artist - CDX 503
DYEAR=2010
DGENRE=Country
TTITLE0=Toby Keith - Trailerhood
TTITLE1=Thomson Square - Are you  gonna kiss me or not
TTITLE2=Josh Gracin - Cover girl
TTITLE3=Bo Bice - You take yourself with you
TTITLE4=Emil Bishaw - All I ever knew of love was you
TTITLE5=Smokey River Boys - All pure country
TTITLE6=Sandy Kastel - Indiana rain
TTITLE7=Kelly Parkes - Nothing' good even happens after midnight
TTITLE8=David Wood - Simple things
TTITLE9=Johnny A - Politicians
TTITLE10=The Kentucky Linemen - Walk on
TTITLE11=Artist for Tennessee flood relief - City of dreams
EXTD=
EXTT0=
EXTT1=
EXTT2=
EXTT3=
EXTT4=
EXTT5=
EXTT6=
EXTT7=
EXTT8=
EXTT9=
EXTT10=
EXTT11=
PLAYORDER=
